<svg width="256" height="256" viewBox="0 0 256 256" fill="none" xmlns="http://www.w3.org/2000/svg">
<rect width="256" height="256" rx="32" fill="#7F54B9"/>
<path d="M194.254 167.199C194.254 174.068 192.486 179.358 188.951 183.068C187.315 184.836 185.327 186.241 183.114 187.193C180.902 188.145 178.514 188.622 176.106 188.593C173.739 188.641 171.391 188.172 169.224 187.217C167.058 186.263 165.126 184.847 163.564 183.068C160.244 179.358 158.577 174.068 158.564 167.199H131.746C131.552 175.366 133.55 183.436 137.533 190.569C141.236 197.112 146.736 202.458 153.381 205.974C160.387 209.64 168.2 211.491 176.106 211.358C184.042 211.47 191.882 209.62 198.932 205.974C205.661 202.455 211.255 197.099 215.063 190.529C219.102 183.427 221.151 175.367 220.991 167.199H194.254ZM162.173 131.247C158.839 127.564 157.172 122.281 157.172 115.398C157.172 108.515 158.866 103.206 162.254 99.4686C163.886 97.7314 165.858 96.3471 168.046 95.4008C170.234 94.4545 172.593 93.9663 174.977 93.9663C177.361 93.9663 179.72 94.4545 181.908 95.4008C184.096 96.3471 186.068 97.7314 187.7 99.4686C191.142 103.179 192.862 108.462 192.862 115.317C192.862 122.173 191.095 127.456 187.559 131.166C185.924 132.94 183.933 134.348 181.716 135.3C179.499 136.252 177.107 136.726 174.695 136.691C172.33 136.744 169.983 136.277 167.819 135.322C165.655 134.368 163.727 132.949 162.173 131.166M174.554 71.2593H173.586C166.152 71.349 158.844 73.1863 152.252 76.6229C145.549 80.1359 139.993 85.4959 136.242 92.0684C132.254 99.1789 130.242 107.227 130.415 115.378C130.225 123.546 132.209 131.618 136.161 138.768C139.882 145.293 145.378 150.628 152.01 154.153C159.009 157.798 166.804 159.648 174.695 159.537C182.642 159.641 190.494 157.792 197.561 154.153C204.294 150.629 209.888 145.266 213.692 138.687C217.737 131.596 219.786 123.541 219.62 115.378C219.786 107.225 217.767 99.1769 213.772 92.0684C213.208 91.1005 212.623 90.173 211.998 89.2858C214.775 87.1715 217.028 84.4452 218.581 81.3188C220.134 78.1924 220.945 74.75 220.951 71.2593H174.574" fill="white"/>
<path d="M118.391 91.0375C114.64 84.465 109.084 79.105 102.381 75.5919C95.3584 71.9327 87.5341 70.0823 79.6162 70.2082C71.696 70.0834 63.8703 71.941 56.8511 75.6121C50.1733 79.129 44.6395 84.4809 40.9015 91.0375C36.8924 98.142 34.8593 106.191 35.0136 114.347C34.8146 122.516 36.7983 130.59 40.7603 137.737C44.4755 144.266 49.9727 149.602 56.6092 153.122C63.584 156.755 71.3495 158.604 79.2129 158.506C87.1601 158.605 95.0106 156.757 102.079 153.122C108.806 149.6 114.399 144.245 118.21 137.677C122.238 130.571 124.279 122.513 124.118 114.347C124.291 106.196 122.279 98.1479 118.291 91.0375M92.0774 130.196C90.442 131.969 88.451 133.378 86.2343 134.33C84.0176 135.282 81.6251 135.756 79.2129 135.721C76.8483 135.774 74.5009 135.307 72.337 134.352C70.1731 133.397 68.2456 131.978 66.6911 130.196C63.3439 126.506 61.6905 121.223 61.6905 114.347C61.6905 107.471 63.3842 102.067 66.7718 98.4175C68.3835 96.6453 70.3573 95.2402 72.5595 94.2974C74.7616 93.3546 77.1407 92.8961 79.5355 92.953C81.9326 92.8933 84.3143 93.3525 86.5173 94.2992C88.7204 95.2458 90.6927 96.6575 92.2993 98.4376C95.754 102.148 97.4746 107.431 97.4612 114.286C97.4478 121.142 95.6801 126.425 92.1581 130.135" fill="white"/>
<path d="M61.4121 44.6353H35.0176V158.481H61.4121V44.6353Z" fill="white"/>
</svg>
