<svg width="68" height="68" viewBox="0 0 68 68" fill="none" xmlns="http://www.w3.org/2000/svg">
<path d="M65.5437 41.2765H63.1183V38.8509H60.6927V41.2765H58.2673V43.7019H55.8418H53.4039V41.2765V38.8509H55.8418V36.4255V33.9999H58.2673V31.5745H60.6927V29.1489V26.7234H58.2673V24.2979H55.8418V26.7234V29.1489H53.4039V31.5745H50.9784H48.5529V29.1489H50.9784V26.7234V24.2979V21.8724H48.5529V19.4469H46.1274V17.0214H43.7019V19.4469V21.8724H46.1274V24.2979H43.7019V21.8724H41.2764V19.4469V17.0214H43.7019V14.5836V12.1581H41.2764V9.73259H38.8509V7.30705H36.4254V4.88159H33.9999V7.30705V9.73259V12.1581H36.4254V14.5836V17.0214V19.4469H33.9999V21.8724V24.2979H31.5744V26.7234H29.1489V29.1489H26.7234V26.7234H24.2855V24.2979V21.8724H26.7234V19.4469V17.0214H29.1489V14.5836H26.7234H24.2855V17.0214H21.86V19.4469H19.4345V21.8724H17.009V24.2979V26.7234V29.1489H19.4345V31.5745H21.86V33.9999V36.4255H19.4345V38.8509V41.2765H17.009V38.8509H14.5835H12.1581V36.4255H14.5835V33.9999H12.1581V31.5745H9.73251V29.1489H12.1581V26.7234V24.2979H9.73251V26.7234H7.30705V29.1489V31.5745V33.9999H4.88152V36.4255V38.8509V41.2765H7.30705V43.7019H9.73251H12.1581V46.1398H14.5835V48.5653H12.1581V46.1398H9.73251H7.30705H4.88152V43.7019H2.45605V46.1398V48.5653H4.88152V50.9908H7.30705V53.4163V55.8418H9.73251V58.2673H12.1581V60.6928H14.5835V63.1183H17.009H19.4345V65.5438H21.86V67.9693H24.2855H26.7234H29.1489H31.5744H33.9999H36.4254H38.8509H41.2764H43.7019H46.1274H48.5529V65.5438H50.9784V63.1183H53.4039H55.8418V60.6928H58.2673V58.2673V55.8418H60.6927V53.4163H63.1183V50.9908V48.5653H65.5437V46.1398V43.7019H67.9693V41.2765H65.5437ZM17.009 43.7019H19.4345V46.1398H21.86H24.2855V48.5653H26.7234V50.9908H29.1489V48.5653V46.1398H26.7234V43.7019H24.2855V41.2765H26.7234V38.8509H29.1489V41.2765H26.7234V43.7019H29.1489H31.5744V41.2765H33.9999V38.8509H36.4254V36.4255V33.9999V31.5745V29.1489H33.9999V26.7234H36.4254V29.1489H38.8509V31.5745H41.2764V33.9999H43.7019V36.4255V38.8509H41.2764V41.2765V43.7019H38.8509V46.1398H41.2764V48.5653H43.7019V46.1398V43.7019H46.1274V41.2765H48.5529V43.7019H46.1274V46.1398V48.5653H43.7019V50.9908H46.1274H48.5529V48.5653H50.9784V50.9908H48.5529V53.4163V55.8418H46.1274V58.2673H43.7019V60.6928H41.2764H38.8509H36.4254H33.9999H31.5744H29.1489H26.7234V58.2673H24.2855V55.8418H21.86V53.4163V50.9908H19.4345V48.5653V46.1398H17.009V43.7019Z" fill="white"/>
<path d="M65.5436 36.4255H63.1182V38.851H65.5436V36.4255Z" fill="white"/>
<path d="M55.8421 19.447H53.4043V21.8725V24.298H55.8421V21.8725V19.447Z" fill="white"/>
<path d="M33.9997 0.0307617H31.5742V2.45622V4.88176H33.9997V2.45622V0.0307617Z" fill="white"/>
<path d="M24.2858 9.73267H21.8604V12.1581H24.2858V9.73267Z" fill="white"/>
<path d="M9.73308 21.8726H7.30762V24.2981H9.73308V21.8726Z" fill="white"/>
<path d="M2.45581 41.2766H0.0302734V43.7021H2.45581V41.2766Z" fill="white"/>
</svg>
