<svg width="256" height="256" viewBox="0 0 256 256" fill="none" xmlns="http://www.w3.org/2000/svg">
<g filter="url(#filter0_ii_246_1131)">
<rect x="256" y="256" width="256" height="256" rx="57.4382" transform="rotate(180 256 256)" fill="#171717"/>
<g filter="url(#filter1_f_246_1131)">
<path d="M182.053 114.488C183.331 114.483 184.585 114.842 185.668 115.522C186.751 116.201 187.619 117.174 188.17 118.328C188.722 119.481 188.936 120.767 188.786 122.037C188.636 123.307 188.128 124.508 187.323 125.501L120.433 194.418C119.931 194.997 119.247 195.388 118.494 195.528C117.74 195.667 116.962 195.546 116.286 195.185C115.611 194.823 115.078 194.243 114.775 193.539C114.473 192.835 114.419 192.049 114.622 191.31L127.595 150.635C127.977 149.612 128.106 148.51 127.969 147.426C127.833 146.342 127.435 145.307 126.81 144.41C126.186 143.513 125.353 142.781 124.384 142.276C123.414 141.772 122.337 141.51 121.244 141.514H73.9478C72.6692 141.518 71.4156 141.16 70.3327 140.48C69.2498 139.8 68.382 138.827 67.8301 137.674C67.2781 136.521 67.0648 135.234 67.2149 133.965C67.3649 132.695 67.8721 131.494 68.6777 130.501L135.568 61.5839C136.069 61.0048 136.753 60.6134 137.507 60.474C138.26 60.3347 139.039 60.4557 139.714 60.8171C140.39 61.1785 140.923 61.7589 141.225 62.463C141.527 63.1671 141.581 63.9531 141.378 64.6919L128.406 105.366C128.023 106.39 127.895 107.492 128.031 108.576C128.168 109.66 128.566 110.695 129.19 111.592C129.815 112.489 130.647 113.221 131.617 113.725C132.586 114.23 133.664 114.491 134.757 114.488H182.053Z" fill="#B0FF4F" fill-opacity="0.84"/>
<path d="M182.053 114.488C183.331 114.483 184.585 114.842 185.668 115.522C186.751 116.201 187.619 117.174 188.17 118.328C188.722 119.481 188.936 120.767 188.786 122.037C188.636 123.307 188.128 124.508 187.323 125.501L120.433 194.418C119.931 194.997 119.247 195.388 118.494 195.528C117.74 195.667 116.962 195.546 116.286 195.185C115.611 194.823 115.078 194.243 114.775 193.539C114.473 192.835 114.419 192.049 114.622 191.31L127.595 150.635C127.977 149.612 128.106 148.51 127.969 147.426C127.833 146.342 127.435 145.307 126.81 144.41C126.186 143.513 125.353 142.781 124.384 142.276C123.414 141.772 122.337 141.51 121.244 141.514H73.9478C72.6692 141.518 71.4156 141.16 70.3327 140.48C69.2498 139.8 68.382 138.827 67.8301 137.674C67.2781 136.521 67.0648 135.234 67.2149 133.965C67.3649 132.695 67.8721 131.494 68.6777 130.501L135.568 61.5839C136.069 61.0048 136.753 60.6134 137.507 60.474C138.26 60.3347 139.039 60.4557 139.714 60.8171C140.39 61.1785 140.923 61.7589 141.225 62.463C141.527 63.1671 141.581 63.9531 141.378 64.6919L128.406 105.366C128.023 106.39 127.895 107.492 128.031 108.576C128.168 109.66 128.566 110.695 129.19 111.592C129.815 112.489 130.647 113.221 131.617 113.725C132.586 114.23 133.664 114.491 134.757 114.488H182.053Z" stroke="#B0FF4F" stroke-opacity="0.3" stroke-width="13.5131" stroke-linecap="round" stroke-linejoin="round"/>
</g>
<path d="M182.053 114.488C183.331 114.483 184.585 114.842 185.668 115.522C186.751 116.201 187.619 117.174 188.17 118.328C188.722 119.481 188.936 120.767 188.786 122.037C188.636 123.307 188.128 124.508 187.323 125.501L120.433 194.418C119.931 194.997 119.247 195.388 118.494 195.528C117.74 195.667 116.962 195.546 116.286 195.185C115.611 194.823 115.078 194.243 114.775 193.539C114.473 192.835 114.419 192.049 114.622 191.31L127.595 150.635C127.977 149.612 128.106 148.51 127.969 147.426C127.833 146.342 127.435 145.307 126.81 144.41C126.186 143.513 125.353 142.781 124.384 142.276C123.414 141.772 122.337 141.51 121.244 141.514H73.9478C72.6692 141.518 71.4156 141.16 70.3327 140.48C69.2498 139.8 68.382 138.827 67.8301 137.674C67.2781 136.521 67.0648 135.234 67.2149 133.965C67.3649 132.695 67.8721 131.494 68.6777 130.501L135.568 61.5839C136.069 61.0048 136.753 60.6134 137.507 60.474C138.26 60.3347 139.039 60.4557 139.714 60.8171C140.39 61.1785 140.923 61.7589 141.225 62.463C141.527 63.1671 141.581 63.9531 141.378 64.6919L128.406 105.366C128.023 106.39 127.895 107.492 128.031 108.576C128.168 109.66 128.566 110.695 129.19 111.592C129.815 112.489 130.647 113.221 131.617 113.725C132.586 114.23 133.664 114.491 134.757 114.488H182.053Z" fill="#F4E424" stroke="#F4E424" stroke-width="13.5131" stroke-linecap="round" stroke-linejoin="round"/>
<g filter="url(#filter2_f_246_1131)">
<path d="M159.744 149.504L113.664 195.584" stroke="white" stroke-width="4.096"/>
</g>
</g>
<defs>
<filter id="filter0_ii_246_1131" x="-8.192" y="-8.192" width="270.336" height="272.384" filterUnits="userSpaceOnUse" color-interpolation-filters="sRGB">
<feFlood flood-opacity="0" result="BackgroundImageFix"/>
<feBlend mode="normal" in="SourceGraphic" in2="BackgroundImageFix" result="shape"/>
<feColorMatrix in="SourceAlpha" type="matrix" values="0 0 0 0 0 0 0 0 0 0 0 0 0 0 0 0 0 0 127 0" result="hardAlpha"/>
<feOffset dx="6.144" dy="8.192"/>
<feGaussianBlur stdDeviation="12.288"/>
<feComposite in2="hardAlpha" operator="arithmetic" k2="-1" k3="1"/>
<feColorMatrix type="matrix" values="0 0 0 0 1 0 0 0 0 1 0 0 0 0 1 0 0 0 0.3 0"/>
<feBlend mode="normal" in2="shape" result="effect1_innerShadow_246_1131"/>
<feColorMatrix in="SourceAlpha" type="matrix" values="0 0 0 0 0 0 0 0 0 0 0 0 0 0 0 0 0 0 127 0" result="hardAlpha"/>
<feOffset dx="-8.192" dy="-8.192"/>
<feGaussianBlur stdDeviation="12.4416"/>
<feComposite in2="hardAlpha" operator="arithmetic" k2="-1" k3="1"/>
<feColorMatrix type="matrix" values="0 0 0 0 0 0 0 0 0 0 0 0 0 0 0 0 0 0 0.78 0"/>
<feBlend mode="normal" in2="effect1_innerShadow_246_1131" result="effect2_innerShadow_246_1131"/>
</filter>
<filter id="filter1_f_246_1131" x="48.9428" y="42.1923" width="158.115" height="171.617" filterUnits="userSpaceOnUse" color-interpolation-filters="sRGB">
<feFlood flood-opacity="0" result="BackgroundImageFix"/>
<feBlend mode="normal" in="SourceGraphic" in2="BackgroundImageFix" result="shape"/>
<feGaussianBlur stdDeviation="5.7344" result="effect1_foregroundBlur_246_1131"/>
</filter>
<filter id="filter2_f_246_1131" x="100.03" y="135.87" width="73.3475" height="73.3475" filterUnits="userSpaceOnUse" color-interpolation-filters="sRGB">
<feFlood flood-opacity="0" result="BackgroundImageFix"/>
<feBlend mode="normal" in="SourceGraphic" in2="BackgroundImageFix" result="shape"/>
<feGaussianBlur stdDeviation="6.0928" result="effect1_foregroundBlur_246_1131"/>
</filter>
</defs>
</svg>
